Coordinates
version=1
nRows=21
nColumns=22
inDegrees=yes

Units are S.I. units (second, meters, Newtons, ...)
If the header above contains a line with 'inDegrees', this indicates whether rotational values are in degrees (yes) or radians (no).

endheader
time	pelvis_tilt	pelvis_list	pelvis_rotation	pelvis_tx	pelvis_ty	pelvis_tz	hip_flexion_r	hip_adduction_r	hip_rotation_r	knee_angle_r	ankle_angle_r	subtalar_angle_r	hip_flexion_l	hip_adduction_l	hip_rotation_l	knee_angle_l	ankle_angle_l	subtalar_angle_l	lumbar_extension	lumbar_bending	lumbar_rotation
      1.64000000	     -5.75993972	     -3.18500121	    112.47232007	     -0.81052374	      0.92771449	      0.51924135	     25.17268049	     -4.74936563	     -3.32072890	    -72.91260354	     -3.52201894	     -1.48769904	     10.09162247	      4.14192832	      1.71184644	    -23.53566705	     12.13294478	      2.47554526	     -9.74783463	     -9.00158940	     -5.16617376
      1.65000000	     -5.71060458	     -2.89170117	    112.12390659	     -0.81378001	      0.92859863	      0.51158296	     26.19837930	     -4.30755053	     -3.56534923	    -72.05898314	     -2.43936658	     -1.44230494	      8.94097729	      3.94217027	      1.35896863	    -23.01524897	     12.44297245	      2.41796657	    -10.10184732	     -8.78597553	     -5.95151425
      1.66000000	     -5.65732229	     -2.67368153	    111.81730413	     -0.81707371	      0.92924110	      0.50393091	     27.19656409	     -3.93988943	     -3.84715858	    -70.93499493	     -1.38364201	     -1.27488108	      7.85241445	      3.78297841	      1.03230225	    -22.46353348	     12.74532153	      2.37664580	    -10.35819452	     -8.58599088	     -6.74242958
      1.67000000	     -5.61482082	     -2.50136728	    111.53618359	     -0.82035252	      0.92967890	      0.49627752	     28.13164866	     -3.64779064	     -4.15529758	    -69.54887000	     -0.37601467	     -1.02309871	      6.80224736	      3.66005464	      0.70563625	    -21.90495838	     13.04736579	      2.34216133	    -10.56322153	     -8.40922597	     -7.54945611
      1.68000000	     -5.58062706	     -2.37409180	    111.26655951	     -0.82359636	      0.92991575	      0.48861022	     29.00558702	     -3.42902836	     -4.48578882	    -67.90981292	      0.54420528	     -0.72220823	      5.77961238	      3.57240004	      0.39501644	    -21.32071889	     13.34411961	      2.30724654	    -10.71619383	     -8.25333907	     -8.34484911
      1.69000000	     -5.55622915	     -2.28981381	    111.00146143	     -0.82679605	      0.92994370	      0.48091650	     29.81290545	     -3.28099065	     -4.83579732	    -66.02695140	      1.38558499	     -0.41708636	      4.79458877	      3.51940518	      0.08850202	    -20.73814264	     13.64749720	      2.27359321	    -10.82102839	     -8.11678087	     -9.12803030
      1.70000000	     -5.53731937	     -2.24456699	    110.73008043	     -0.82993893	      0.92977208	      0.47314936	     30.54566475	     -3.19216006	     -5.20625945	    -63.90465590	      2.12605587	     -0.14132355	      3.83922719	      3.49475930	     -0.21821953	    -20.15202351	     13.95321886	      2.23368036	    -10.87317298	     -7.99817837	     -9.87522863
      1.71000000	     -5.51982101	     -2.22751407	    110.44609784	     -0.83297016	      0.92943066	      0.46529599	     31.18921282	     -3.12931646	     -5.57017327	    -61.53597996	      2.73686009	      0.09316083	      2.89925735	      3.48672242	     -0.52266090	    -19.55057450	     14.25264449	      2.17348235	    -10.88774911	     -7.89865812	    -10.57948315
      1.72000000	     -5.50033734	     -2.22737847	    110.14010741	     -0.83591466	      0.92892725	      0.45731126	     31.72644522	     -3.08315838	     -5.93449704	    -58.92707835	      3.23290003	      0.27867920	      1.96586968	      3.48897826	     -0.83911910	    -18.94502398	     14.55134223	      2.08425442	    -10.86477020	     -7.80146460	    -11.22877414
      1.73000000	     -5.47227579	     -2.25954509	    109.81826897	     -0.83874404	      0.92822970	      0.44920609	     32.17458811	     -3.03752657	     -6.28841754	    -56.08356240	      3.62675084	      0.40621035	      1.07376464	      3.49498216	     -1.19012384	    -18.36019479	     14.86204913	      1.97928585	    -10.78985555	     -7.71507740	    -11.83182658
      1.74000000	     -5.44119970	     -2.29907658	    109.47119282	     -0.84145036	      0.92739552	      0.44095699	     32.49999349	     -2.97159484	     -6.60899221	    -53.00170591	      3.88523431	      0.49203499	      0.17495594	      3.50526396	     -1.55120677	    -17.76134509	     15.16351495	      1.83779541	    -10.69104193	     -7.63279788	    -12.37326160
      1.75000000	     -5.38708847	     -2.37027740	    109.10984700	     -0.84403462	      0.92634909	      0.43256050	     32.73343513	     -2.87606464	     -6.91847320	    -49.69671932	      4.07427497	      0.55989768	     -0.66186928	      3.49930778	     -1.97320466	    -17.21949754	     15.50280510	      1.70834804	    -10.52953295	     -7.54528366	    -12.86915662
      1.76000000	     -5.35198829	     -2.42905096	    108.72456663	     -0.84649145	      0.92521103	      0.42402012	     32.81597349	     -2.75263377	     -7.14969284	    -46.17464384	      4.14544968	      0.61908084	     -1.54236750	      3.51865310	     -2.35317587	    -16.64699443	     15.81220742	      1.53813694	    -10.37804180	     -7.47834245	    -13.32134323
      1.77000000	     -5.29232231	     -2.51916028	    108.33297644	     -0.84882786	      0.92385650	      0.41533826	     32.80925069	     -2.58812778	     -7.34973275	    -42.46024391	      4.14835772	      0.69375359	     -2.35433038	      3.51984916	     -2.77641345	    -16.14269936	     16.15600743	      1.38981922	    -10.16690539	     -7.40200853	    -13.72953315
      1.78000000	     -5.21608716	     -2.63583185	    107.93782119	     -0.85109405	      0.92229693	      0.40649138	     32.71649198	     -2.40233161	     -7.54190959	    -38.59813051	      4.07155995	      0.77898895	     -3.12525949	      3.51196341	     -3.23534177	    -15.67162896	     16.51460826	      1.25238333	     -9.90009290	     -7.31260311	    -14.09006841
      1.79000000	     -5.18572245	     -2.70148676	    107.55382540	     -0.85328805	      0.92069449	      0.39749523	     32.44103216	     -2.22877376	     -7.69305293	    -34.62294356	      3.98083832	      0.88639364	     -3.97832804	      3.54505299	     -3.60551282	    -15.18729712	     16.84443416	      1.07661761	     -9.70375793	     -7.25319933	    -14.44841540
      1.80000000	     -5.13630424	     -2.81143522	    107.18687973	     -0.85541726	      0.91882714	      0.38836442	     32.14127110	     -2.05346623	     -7.87308057	    -30.63141037	      3.82068195	      0.97070500	     -4.72591830	      3.56320823	     -4.01895937	    -14.81902939	     17.23404660	      0.94235811	     -9.44054613	     -7.18577828	    -14.78971344
      1.81000000	     -5.10670822	     -2.90795172	    106.84327964	     -0.85755676	      0.91681678	      0.37903279	     31.77041877	     -1.91794159	     -8.15075962	    -26.72388695	      3.68474203	      1.03841967	     -5.49973679	      3.59910148	     -4.38772255	    -14.46155887	     17.61158347	      0.81018750	     -9.18455333	     -7.12226528	    -15.12638150
      1.82000000	     -5.09016637	     -3.00747742	    106.53091190	     -0.85967741	      0.91463116	      0.36952284	     31.39132451	     -1.81959236	     -8.56731460	    -23.01863690	      3.57261808	      1.08079311	     -6.24774355	      3.64200797	     -4.71633805	    -14.17413747	     18.00068381	      0.70047355	     -8.92060290	     -7.06851163	    -15.47199489
      1.83000000	     -5.06526766	     -3.13144239	    106.25455536	     -0.86178047	      0.91224154	      0.35984352	     31.07592413	     -1.74444998	     -9.17915600	    -19.64051636	      3.45894277	      1.11389541	     -6.92881488	      3.66997939	     -5.00624464	    -13.98030909	     18.41433392	      0.62678022	     -8.61816706	     -7.00541133	    -15.83304197
      1.84000000	     -5.06590452	     -3.19690888	    106.00920857	     -0.86383881	      0.90982907	      0.34999260	     30.74415217	     -1.68859252	     -9.96749348	    -16.66795031	      3.46724712	      1.16176000	     -7.64756778	      3.69550366	     -5.20250100	    -13.86384056	     18.78506952	      0.57509235	     -8.39280459	     -6.94917475	    -16.18950516
